# xmcd
#
# Track frame offsets: 
#        182
#        12275
#        23380
#        36695
#        48007
#        59795
#        72170
#        84152
#        96270
#        108865
#        121045
#        133025
#        146352
#        158455
#        170155
#        181962
#        195355
#        205990
#        218575
#
# Disc length: 3081 seconds
#
# Revision: 2
# Processed by: cddbd v1.5.1PL0 Copyright (c) Steve Scherf et al.
# Submitted via: ExactAudioCopy v0.95b2
#
DISCID=f90c0713
DTITLE=Nat King Cole (1915-1965) - Complete Capitol Mosaic (1942-1961)
DTITLE=CD 10
DYEAR=1991
DGENRE=Jazz
TTITLE0=Save the bones for Henry Jones
TTITLE1=My Baby Likes To Be-Bop
TTITLE2=Harmony
TTITLE3=You Can't Make Money Dreamin'
TTITLE4=There's A Train Out For Dreamland
TTITLE5=(Go To Sleep) My Sleepyhead
TTITLE6=Nature Boy
TTITLE7=Wildroot Charlie
TTITLE8=Nursery Rhymes
TTITLE9=Old MacDonald Had A Farm
TTITLE10=The Three Trees
TTITLE11=Laguna Mood
TTITLE12=I'm A Little Ashamed
TTITLE13=Now He Tells Me
TTITLE14=That's A Natural
TTITLE15=Lament In Chords
TTITLE16=You've Got Another Heart On Your Hands
TTITLE17=Baby I Need You
TTITLE18=Those Things Money Can't Buy
EXTD=YEAR: 1991
EXTT0=
EXTT1=
EXTT2=
EXTT3=
EXTT4=
EXTT5=
EXTT6=
EXTT7=
EXTT8=
EXTT9=
EXTT10=
EXTT11=
EXTT12=
EXTT13=
EXTT14=
EXTT15=
EXTT16=
EXTT17=
EXTT18=
PLAYORDER=
